<svg width="20" height="20" viewBox="0 0 20 20" fill="none" xmlns="http://www.w3.org/2000/svg">
<path d="M12.1073 7.89258L7.89063 12.1092C7.34896 11.5676 7.01562 10.8259 7.01562 10.0009C7.01562 8.35091 8.34896 7.01758 9.99896 7.01758C10.824 7.01758 11.5656 7.35091 12.1073 7.89258Z" stroke="#292D32" stroke-width="1.5" stroke-linecap="round" stroke-linejoin="round"/>
<path d="M14.8518 4.80742C13.3935 3.70742 11.7268 3.10742 10.0018 3.10742C7.06016 3.10742 4.31849 4.84076 2.41016 7.84075C1.66016 9.01575 1.66016 10.9908 2.41016 12.1658C3.06849 13.1991 3.83516 14.0908 4.66849 14.8074" stroke="#292D32" stroke-width="1.5" stroke-linecap="round" stroke-linejoin="round"/>
<path d="M7.01562 16.2741C7.96563 16.6741 8.97396 16.8908 9.99896 16.8908C12.9406 16.8908 15.6823 15.1574 17.5906 12.1574C18.3406 10.9824 18.3406 9.00742 17.5906 7.83242C17.3156 7.39909 17.0156 6.99076 16.7073 6.60742" stroke="#292D32" stroke-width="1.5" stroke-linecap="round" stroke-linejoin="round"/>
<path d="M12.9242 10.584C12.7076 11.759 11.7492 12.7173 10.5742 12.934" stroke="#292D32" stroke-width="1.5" stroke-linecap="round" stroke-linejoin="round"/>
<path d="M7.89297 12.1074L1.66797 18.3324" stroke="#292D32" stroke-width="1.5" stroke-linecap="round" stroke-linejoin="round"/>
<path d="M18.3344 1.66602L12.1094 7.89102" stroke="#292D32" stroke-width="1.5" stroke-linecap="round" stroke-linejoin="round"/>
</svg>
