<svg width="20" height="19" viewBox="0 0 20 19" fill="none" xmlns="http://www.w3.org/2000/svg">
<path d="M8.45455 3.1L18.5 3.1M8.45455 3.1C8.45455 3.98366 7.76262 4.7 6.90909 4.7C6.05556 4.7 5.36364 3.98365 5.36364 3.1M8.45455 3.1C8.45455 2.21634 7.76262 1.5 6.90909 1.5C6.05556 1.5 5.36364 2.21634 5.36364 3.1M1.5 3.1H5.36364M8.45455 15.9H18.5M8.45455 15.9C8.45455 16.7837 7.76262 17.5 6.90909 17.5C6.05556 17.5 5.36364 16.7837 5.36364 15.9M8.45455 15.9C8.45455 15.0163 7.76262 14.3 6.90909 14.3C6.05556 14.3 5.36364 15.0163 5.36364 15.9M1.5 15.9L5.36364 15.9M14.6364 9.5L18.5 9.5M14.6364 9.5C14.6364 10.3837 13.9444 11.1 13.0909 11.1C12.2374 11.1 11.5455 10.3837 11.5455 9.5M14.6364 9.5C14.6364 8.61634 13.9444 7.9 13.0909 7.9C12.2374 7.9 11.5455 8.61634 11.5455 9.5M1.5 9.5H11.5455" stroke="#1E88E5" stroke-width="1.5" stroke-linecap="round" stroke-linejoin="round"/>
</svg>
