<svg width="240" height="176" viewBox="0 0 240 176" fill="none" xmlns="http://www.w3.org/2000/svg">
<mask id="path-1-inside-1_7336_80231" fill="white">
<path d="M74.2526 119.777C77.4248 121.122 94.2612 132.867 96.6149 135.376C98.5948 137.567 100.257 140.619 98.3078 143.392C96.3152 145.935 93.1157 147.191 89.9235 147.179C85.6184 147.399 81.387 146.489 77.6234 144.599C75.5625 143.525 73.7019 142.235 72.0537 140.714C68.9786 137.833 66.6731 134.183 65.4177 130.076C64.3051 127.094 64.3951 123.669 66.1131 120.934C68.0619 118.161 71.5087 118.673 74.2526 119.777ZM152.432 32.9452C163.928 40.9651 171.853 54.5921 172.491 68.4754C172.937 77.439 170.935 84.6882 164.598 93.7052L162.949 96.051C158.089 102.966 157.059 108.323 157.795 115.836C158.422 121.43 156.278 126.554 152.891 131.373C149.507 136.186 144.709 139.649 138.921 141.141C131.631 142.684 123.764 141.427 117.424 137.74C108.221 132.419 99.0948 126.978 90.2896 120.836C81.4789 114.69 73.0552 108.261 65.0646 101.216C59.4132 96.5378 55.5368 89.6023 54.5045 82.2543C53.9316 76.3257 55.5503 70.6445 58.9336 65.831C62.3206 61.012 66.426 57.2564 71.9121 55.9264C79.377 54.1339 83.9557 51.253 88.8161 44.338L90.4648 41.9922C96.9739 32.7312 103.549 28.2924 112.489 25.694C125.662 21.9991 140.682 24.7493 151.937 32.6005L152.432 32.9452ZM160.221 56.9285C158.767 55.6892 156.575 55.8664 155.296 57.3421C154.057 58.834 154.228 61.0713 155.71 62.3596C157.952 64.3774 158.707 67.652 157.599 70.5114L157.55 70.6382C157.109 71.5443 157.041 72.5603 157.344 73.482C157.648 74.4036 158.35 75.1483 159.217 75.5897C160.912 76.2071 162.865 75.4265 163.655 73.7529L163.845 73.266C166.189 67.5833 164.727 61.0195 160.221 56.9285Z"/>
</mask>
<path d="M74.2526 119.777L75.0387 117.939L75.0217 117.932L75.0045 117.925L74.2526 119.777ZM96.6149 135.376L98.1043 134.039L98.0919 134.025L98.0792 134.012L96.6149 135.376ZM98.3078 143.392L99.8864 144.619L99.9183 144.578L99.9482 144.536L98.3078 143.392ZM89.9235 147.179L89.9334 145.182L89.8783 145.182L89.8233 145.185L89.9235 147.179ZM77.6234 144.599L76.6935 146.368L76.7069 146.375L76.7204 146.382L77.6234 144.599ZM72.0537 140.714L70.6807 142.169L70.686 142.174L70.6914 142.179L72.0537 140.714ZM65.4177 130.076L67.3341 129.492L67.3166 129.435L67.2956 129.379L65.4177 130.076ZM66.1131 120.934L64.4727 119.789L64.4429 119.832L64.4153 119.876L66.1131 120.934ZM172.491 68.4754L170.49 68.5693L170.491 68.5766L172.491 68.4754ZM162.949 96.051L161.309 94.9067L161.309 94.9067L162.949 96.051ZM157.795 115.836L155.801 116.032L155.802 116.046L155.804 116.06L157.795 115.836ZM152.891 131.373L154.531 132.517L154.531 132.517L152.891 131.373ZM138.921 141.141L139.335 143.094L139.378 143.085L139.42 143.074L138.921 141.141ZM117.424 137.74L118.435 136.015L118.431 136.012L117.424 137.74ZM90.2896 120.836L89.1395 122.472L89.1396 122.472L90.2896 120.836ZM65.0646 101.216L66.393 99.7193L66.3696 99.6987L66.3456 99.6789L65.0646 101.216ZM54.5045 82.2543L52.5104 82.4481L52.5145 82.4909L52.5205 82.5335L54.5045 82.2543ZM58.9336 65.831L57.2932 64.6867L57.2932 64.6867L58.9336 65.831ZM71.9121 55.9264L71.4451 53.9854L71.4409 53.9864L71.9121 55.9264ZM88.8161 44.338L90.4564 45.4822L90.4564 45.4822L88.8161 44.338ZM112.489 25.694L111.948 23.772L111.939 23.7746L111.93 23.7772L112.489 25.694ZM151.937 32.6005L153.087 30.9642L151.937 32.6005ZM160.221 56.9285L161.571 55.4518L161.548 55.4307L161.524 55.4104L160.221 56.9285ZM155.296 57.3421L153.781 56.0375L153.766 56.0537L153.753 56.0702L155.296 57.3421ZM155.71 62.3596L157.054 60.877L157.041 60.8654L157.028 60.8541L155.71 62.3596ZM157.599 70.5114L155.73 69.7938L155.727 69.8014L157.599 70.5114ZM157.55 70.6382L159.352 71.5076L159.39 71.4294L159.422 71.3482L157.55 70.6382ZM157.344 73.482L155.441 74.1063L155.441 74.1065L157.344 73.482ZM159.217 75.5897L158.304 77.3679L158.412 77.4233L158.527 77.4651L159.217 75.5897ZM163.655 73.7529L165.468 74.6014L165.498 74.5381L165.523 74.4729L163.655 73.7529ZM163.845 73.266L161.992 72.5087L161.985 72.5273L161.977 72.546L163.845 73.266ZM74.2526 119.777L73.4664 121.614C74.0691 121.87 75.5633 122.751 77.6642 124.106C79.6998 125.418 82.1546 127.077 84.5906 128.776C87.0267 130.475 89.4305 132.206 91.3651 133.663C93.3618 135.166 94.7035 136.264 95.1506 136.741L96.6149 135.376L98.0792 134.012C97.3495 133.234 95.704 131.922 93.7827 130.476C91.7994 128.982 89.3545 127.222 86.8908 125.504C84.427 123.785 81.9307 122.098 79.8438 120.752C77.8222 119.448 76.0222 118.356 75.0387 117.939L74.2526 119.777ZM96.6149 135.376L95.1256 136.713C96.0197 137.703 96.7176 138.758 97.0168 139.745C97.2916 140.652 97.2281 141.45 96.6675 142.247L98.3078 143.392L99.9482 144.536C101.336 142.561 101.416 140.447 100.852 138.586C100.313 136.807 99.19 135.241 98.1043 134.039L96.6149 135.376ZM98.3078 143.392L96.7293 142.164C95.1896 144.13 92.6309 145.193 89.9334 145.182L89.9235 147.179L89.9135 149.176C93.6006 149.19 97.4409 147.741 99.8864 144.619L98.3078 143.392ZM89.9235 147.179L89.8233 145.185C85.8685 145.387 81.9826 144.551 78.5265 142.815L77.6234 144.599L76.7204 146.382C80.7914 148.426 85.3683 149.411 90.0237 149.173L89.9235 147.179ZM77.6234 144.599L78.5534 142.829C76.6384 141.831 74.9254 140.641 73.416 139.248L72.0537 140.714L70.6914 142.179C72.4784 143.829 74.4866 145.218 76.6935 146.368L77.6234 144.599ZM72.0537 140.714L73.4266 139.258C70.6024 136.612 68.4864 133.262 67.3341 129.492L65.4177 130.076L63.5013 130.66C64.8598 135.105 67.3547 139.053 70.6807 142.169L72.0537 140.714ZM65.4177 130.076L67.2956 129.379C66.3569 126.862 66.4834 124.105 67.8108 121.991L66.1131 120.934L64.4153 119.876C62.3068 123.233 62.2534 127.325 63.5398 130.774L65.4177 130.076ZM66.1131 120.934L67.7534 122.078C68.3141 121.28 69.0451 120.948 69.9939 120.895C71.0273 120.837 72.2615 121.13 73.5006 121.628L74.2526 119.777L75.0045 117.925C73.4998 117.32 71.6386 116.804 69.7754 116.908C67.8277 117.016 65.8609 117.814 64.4727 119.789L66.1131 120.934ZM152.432 32.9452L151.282 34.5815C162.303 42.2695 169.882 55.3427 170.49 68.5693L172.491 68.4754L174.493 68.3816C173.824 53.8414 165.554 39.6606 153.582 31.3089L152.432 32.9452ZM172.491 68.4754L170.491 68.5766C170.912 77.0585 169.062 83.875 162.957 92.561L164.598 93.7052L166.238 94.8495C172.808 85.5013 174.962 77.8195 174.492 68.3743L172.491 68.4754ZM164.598 93.7052L162.957 92.561L161.309 94.9067L162.949 96.051L164.589 97.1952L166.238 94.8495L164.598 93.7052ZM162.949 96.051L161.309 94.9067C158.774 98.5138 157.174 101.807 156.328 105.246C155.483 108.68 155.42 112.14 155.801 116.032L157.795 115.836L159.789 115.639C159.434 112.018 159.518 109.043 160.219 106.192C160.919 103.346 162.264 100.503 164.589 97.1952L162.949 96.051ZM157.795 115.836L155.804 116.06C156.355 120.974 154.498 125.608 151.25 130.229L152.891 131.373L154.531 132.517C158.058 127.499 160.489 121.887 159.786 115.612L157.795 115.836ZM152.891 131.373L151.25 130.229C148.126 134.674 143.722 137.842 138.422 139.208L138.921 141.141L139.42 143.074C145.695 141.457 150.889 137.699 154.531 132.517L152.891 131.373ZM138.921 141.141L138.507 139.188C131.7 140.628 124.341 139.45 118.435 136.015L117.424 137.74L116.413 139.465C123.186 143.404 131.562 144.739 139.335 143.094L138.921 141.141ZM117.424 137.74L118.431 136.012C109.238 130.698 100.172 125.291 91.4397 119.2L90.2896 120.836L89.1396 122.472C98.0173 128.665 107.204 134.141 116.417 139.467L117.424 137.74ZM90.2896 120.836L91.4397 119.2C82.6746 113.085 74.3136 106.703 66.393 99.7193L65.0646 101.216L63.7362 102.712C71.7967 109.818 80.2832 116.294 89.1395 122.472L90.2896 120.836ZM65.0646 101.216L66.3456 99.6789C61.0801 95.3205 57.4522 88.8345 56.4885 81.975L54.5045 82.2543L52.5205 82.5335C53.6214 90.37 57.7464 97.7551 63.7836 102.752L65.0646 101.216ZM54.5045 82.2543L56.4986 82.0605C55.9738 76.6294 57.4506 71.419 60.5739 66.9752L58.9336 65.831L57.2932 64.6867C53.6501 69.8701 51.8894 76.022 52.5104 82.4481L54.5045 82.2543ZM58.9336 65.831L60.5739 66.9752C63.8201 62.3566 67.5625 59.0352 72.3834 57.8665L71.9121 55.9264L71.4409 53.9864C65.2894 55.4777 60.8211 59.6673 57.2932 64.6867L58.9336 65.831ZM71.9121 55.9264L72.3791 57.8675C76.2616 56.9352 79.5166 55.6903 82.4611 53.707C85.4051 51.7242 87.9299 49.0767 90.4564 45.4822L88.8161 44.338L87.1758 43.1937C84.8419 46.5142 82.6472 48.7647 80.2205 50.3992C77.7944 52.0333 75.0276 53.1251 71.4451 53.9854L71.9121 55.9264ZM88.8161 44.338L90.4564 45.4822L92.1051 43.1365L90.4648 41.9922L88.8245 40.848L87.1757 43.1937L88.8161 44.338ZM90.4648 41.9922L92.1051 43.1365C98.3642 34.2313 104.565 30.0762 113.047 27.6107L112.489 25.694L111.93 23.7772C102.532 26.5086 95.5837 31.2311 88.8245 40.848L90.4648 41.9922ZM112.489 25.694L113.029 27.6159C125.601 24.0897 140.004 26.7148 150.787 34.2368L151.937 32.6005L153.087 30.9642C141.36 22.7837 125.723 19.9085 111.948 23.772L112.489 25.694ZM151.937 32.6005L150.787 34.2368L151.282 34.5815L152.432 32.9452L153.582 31.3089L153.087 30.9642L151.937 32.6005ZM160.221 56.9285L161.524 55.4104C159.212 53.4399 155.764 53.7505 153.781 56.0375L155.296 57.3421L156.811 58.6467C157.387 57.9823 158.322 57.9385 158.918 58.4467L160.221 56.9285ZM155.296 57.3421L153.753 56.0702C151.822 58.3958 152.092 61.8652 154.393 63.8652L155.71 62.3596L157.028 60.8541C156.365 60.2774 156.292 59.2721 156.838 58.6139L155.296 57.3421ZM155.71 62.3596L154.367 63.8423C155.977 65.2914 156.547 67.685 155.73 69.7938L157.599 70.5114L159.467 71.2289C160.866 67.619 159.928 63.4635 157.054 60.877L155.71 62.3596ZM157.599 70.5114L155.727 69.8014L155.679 69.9282L157.55 70.6382L159.422 71.3482L159.47 71.2213L157.599 70.5114ZM157.55 70.6382L155.748 69.7688C155.084 71.1327 154.972 72.6838 155.441 74.1063L157.344 73.482L159.248 72.8577C159.109 72.4367 159.134 71.956 159.352 71.5076L157.55 70.6382ZM157.344 73.482L155.441 74.1065C155.93 75.5941 157.033 76.7209 158.304 77.3679L159.217 75.5897L160.13 73.8114C159.667 73.5756 159.365 73.213 159.248 72.8575L157.344 73.482ZM159.217 75.5897L158.527 77.4651C161.194 78.4364 164.234 77.2138 165.468 74.6014L163.655 73.7529L161.843 72.9045C161.496 73.6391 160.63 73.9778 159.907 73.7143L159.217 75.5897ZM163.655 73.7529L165.523 74.4729L165.713 73.9859L163.845 73.266L161.977 72.546L161.788 73.033L163.655 73.7529ZM163.845 73.266L165.698 74.0232C168.359 67.5723 166.705 60.1136 161.571 55.4518L160.221 56.9285L158.871 58.4053C162.748 61.9254 164.019 67.5942 161.992 72.5087L163.845 73.266Z" fill="#42A5F5" mask="url(#path-1-inside-1_7336_80231)"/>
<path d="M49.3708 30.6995C49.3257 30.6995 49.281 30.6906 49.2394 30.6732C49.1977 30.6559 49.1598 30.6304 49.1279 30.5983C49.0961 30.5663 49.0708 30.5282 49.0535 30.4863C49.0363 30.4444 49.0275 30.3995 49.0275 30.3541V20.6095C49.0261 20.5633 49.034 20.5173 49.0507 20.4742C49.0673 20.4311 49.0924 20.3918 49.1244 20.3587C49.1565 20.3255 49.1948 20.2992 49.2371 20.2812C49.2795 20.2632 49.325 20.2539 49.371 20.2539C49.4169 20.2539 49.4624 20.2632 49.5048 20.2812C49.5471 20.2992 49.5855 20.3255 49.6175 20.3587C49.6495 20.3918 49.6746 20.4311 49.6912 20.4742C49.7079 20.5173 49.7158 20.5633 49.7144 20.6095V30.3541C49.7145 30.3995 49.7056 30.4444 49.6884 30.4863C49.6711 30.5283 49.6458 30.5664 49.6139 30.5984C49.582 30.6305 49.5441 30.656 49.5024 30.6733C49.4606 30.6907 49.4159 30.6996 49.3708 30.6995Z" fill="#0D47A1"/>
<path d="M52.533 25.8275H46.2069C46.1158 25.8275 46.0284 25.7912 45.9639 25.7264C45.8995 25.6616 45.8633 25.5737 45.8633 25.4821C45.8633 25.3905 45.8995 25.3027 45.9639 25.2379C46.0284 25.1731 46.1158 25.1367 46.2069 25.1367H52.533C52.6241 25.1367 52.7115 25.1731 52.776 25.2379C52.8404 25.3027 52.8766 25.3905 52.8766 25.4821C52.8766 25.5737 52.8404 25.6616 52.776 25.7264C52.7115 25.7912 52.6241 25.8275 52.533 25.8275Z" fill="#0D47A1"/>
<path d="M3.50753 68.0003C3.46242 68.0003 3.41775 67.9914 3.37608 67.974C3.33441 67.9566 3.29655 67.9312 3.26466 67.8991C3.23278 67.867 3.2075 67.829 3.19026 67.7871C3.17302 67.7451 3.16417 67.7002 3.16421 67.6549V57.9103C3.16286 57.8641 3.17074 57.8181 3.1874 57.775C3.20405 57.7319 3.22913 57.6926 3.26116 57.6595C3.29319 57.6263 3.33151 57.6 3.37386 57.582C3.4162 57.564 3.46171 57.5547 3.50768 57.5547C3.55366 57.5547 3.59916 57.564 3.64151 57.582C3.68385 57.6 3.72217 57.6263 3.7542 57.6595C3.78623 57.6926 3.81131 57.7319 3.82796 57.775C3.84462 57.8181 3.8525 57.8641 3.85115 57.9103V67.6549C3.85119 67.7003 3.84233 67.7452 3.82507 67.7871C3.80782 67.829 3.78251 67.8671 3.75059 67.8992C3.71868 67.9313 3.68078 67.9567 3.63908 67.9741C3.59737 67.9914 3.55267 68.0003 3.50753 68.0003Z" fill="#0D47A1"/>
<path d="M6.6697 63.1283H0.343619C0.252485 63.1283 0.165085 63.0919 0.100644 63.0272C0.0362026 62.9624 0 62.8745 0 62.7829C0 62.6913 0.0362026 62.6034 0.100644 62.5387C0.165085 62.4739 0.252485 62.4375 0.343619 62.4375H6.6697C6.76083 62.4375 6.84824 62.4739 6.91268 62.5387C6.97712 62.6034 7.01332 62.6913 7.01332 62.7829C7.01332 62.8745 6.97712 62.9624 6.91268 63.0272C6.84824 63.0919 6.76083 63.1283 6.6697 63.1283Z" fill="#0D47A1"/>
<path d="M8.20675 146.594C8.16164 146.594 8.11697 146.585 8.0753 146.568C8.03363 146.55 7.99577 146.525 7.96388 146.493C7.932 146.461 7.90671 146.423 7.88948 146.381C7.87224 146.339 7.86339 146.294 7.86343 146.249V136.504C7.86208 136.458 7.86996 136.412 7.88662 136.369C7.90327 136.326 7.92835 136.286 7.96038 136.253C7.99241 136.22 8.03073 136.194 8.07307 136.176C8.11542 136.158 8.16093 136.148 8.2069 136.148C8.25287 136.148 8.29838 136.158 8.34073 136.176C8.38307 136.194 8.42139 136.22 8.45342 136.253C8.48545 136.286 8.51053 136.326 8.52718 136.369C8.54384 136.412 8.55172 136.458 8.55037 136.504V146.249C8.55041 146.294 8.54155 146.339 8.52429 146.381C8.50704 146.423 8.48173 146.461 8.44981 146.493C8.4179 146.525 8.38 146.55 8.33829 146.568C8.29659 146.585 8.25189 146.594 8.20675 146.594Z" fill="#0D47A1"/>
<path d="M11.3689 141.722H5.04284C4.9517 141.722 4.8643 141.686 4.79986 141.621C4.73542 141.556 4.69922 141.468 4.69922 141.377C4.69922 141.285 4.73542 141.197 4.79986 141.132C4.8643 141.068 4.9517 141.031 5.04284 141.031H11.3689C11.4601 141.031 11.5475 141.068 11.6119 141.132C11.6763 141.197 11.7125 141.285 11.7125 141.377C11.7125 141.468 11.6763 141.556 11.6119 141.621C11.5475 141.686 11.4601 141.722 11.3689 141.722Z" fill="#0D47A1"/>
<path d="M213.031 70.9864C212.94 70.9864 212.853 70.95 212.788 70.8852C212.724 70.8205 212.688 70.7326 212.688 70.641V55.8181C212.688 55.7265 212.724 55.6386 212.788 55.5738C212.853 55.509 212.94 55.4727 213.031 55.4727C213.122 55.4727 213.21 55.509 213.274 55.5738C213.339 55.6386 213.375 55.7265 213.375 55.8181V70.641C213.375 70.7326 213.338 70.8204 213.274 70.8851C213.21 70.9499 213.122 70.9863 213.031 70.9864Z" fill="#0D47A1"/>
<path d="M217.842 63.5736H208.219C208.127 63.5736 208.04 63.5372 207.976 63.4725C207.911 63.4077 207.875 63.3198 207.875 63.2282C207.875 63.1366 207.911 63.0488 207.976 62.984C208.04 62.9192 208.127 62.8828 208.219 62.8828H217.842C217.933 62.8828 218.02 62.9192 218.085 62.984C218.149 63.0488 218.185 63.1366 218.185 63.2282C218.185 63.3198 218.149 63.4077 218.085 63.4725C218.02 63.5372 217.933 63.5736 217.842 63.5736Z" fill="#0D47A1"/>
<path d="M35.6717 111.393C35.5806 111.393 35.4932 111.356 35.4288 111.291C35.3643 111.227 35.3281 111.139 35.3281 111.047V96.2243C35.3281 96.1327 35.3643 96.0449 35.4288 95.9801C35.4932 95.9153 35.5806 95.8789 35.6717 95.8789C35.7629 95.8789 35.8503 95.9153 35.9147 95.9801C35.9792 96.0449 36.0154 96.1327 36.0154 96.2243V111.047C36.0153 111.139 35.9791 111.227 35.9146 111.291C35.8502 111.356 35.7629 111.393 35.6717 111.393Z" fill="#0D47A1"/>
<path d="M40.4823 103.98H30.8592C30.7681 103.98 30.6807 103.943 30.6163 103.879C30.5518 103.814 30.5156 103.726 30.5156 103.634C30.5156 103.543 30.5518 103.455 30.6163 103.39C30.6807 103.325 30.7681 103.289 30.8592 103.289H40.4823C40.5735 103.289 40.6609 103.325 40.7253 103.39C40.7898 103.455 40.826 103.543 40.826 103.634C40.826 103.726 40.7898 103.814 40.7253 103.879C40.6609 103.943 40.5735 103.98 40.4823 103.98Z" fill="#0D47A1"/>
<path d="M50.0819 171.908C49.9908 171.908 49.9034 171.872 49.8389 171.807C49.7745 171.742 49.7383 171.654 49.7383 171.563V156.74C49.7383 156.648 49.7745 156.56 49.8389 156.496C49.9034 156.431 49.9908 156.395 50.0819 156.395C50.173 156.395 50.2604 156.431 50.3249 156.496C50.3893 156.56 50.4255 156.648 50.4255 156.74V171.563C50.4254 171.654 50.3892 171.742 50.3248 171.807C50.2604 171.872 50.173 171.908 50.0819 171.908Z" fill="#0D47A1"/>
<path d="M54.8925 164.496H45.2694C45.1783 164.496 45.0908 164.459 45.0264 164.394C44.962 164.33 44.9258 164.242 44.9258 164.15C44.9258 164.058 44.962 163.971 45.0264 163.906C45.0908 163.841 45.1783 163.805 45.2694 163.805H54.8925C54.9836 163.805 55.071 163.841 55.1355 163.906C55.1999 163.971 55.2361 164.058 55.2361 164.15C55.2361 164.242 55.1999 164.33 55.1355 164.394C55.071 164.459 54.9836 164.496 54.8925 164.496Z" fill="#0D47A1"/>
<path d="M193.289 138.947C193.198 138.947 193.11 138.911 193.046 138.846C192.982 138.781 192.945 138.694 192.945 138.602V123.779C192.945 123.687 192.982 123.6 193.046 123.535C193.11 123.47 193.198 123.434 193.289 123.434C193.38 123.434 193.467 123.47 193.532 123.535C193.596 123.6 193.633 123.687 193.633 123.779V138.602C193.632 138.694 193.596 138.781 193.532 138.846C193.467 138.911 193.38 138.947 193.289 138.947Z" fill="#0D47A1"/>
<path d="M198.1 131.535H188.476C188.385 131.535 188.298 131.498 188.233 131.433C188.169 131.369 188.133 131.281 188.133 131.189C188.133 131.098 188.169 131.01 188.233 130.945C188.298 130.88 188.385 130.844 188.476 130.844H198.1C198.191 130.844 198.278 130.88 198.342 130.945C198.407 131.01 198.443 131.098 198.443 131.189C198.443 131.281 198.407 131.369 198.342 131.433C198.278 131.498 198.191 131.535 198.1 131.535Z" fill="#0D47A1"/>
<path d="M139 171.908C138.909 171.908 138.821 171.872 138.757 171.807C138.692 171.742 138.656 171.654 138.656 171.563V156.74C138.656 156.648 138.692 156.56 138.757 156.496C138.821 156.431 138.909 156.395 139 156.395C139.091 156.395 139.178 156.431 139.243 156.496C139.307 156.56 139.343 156.648 139.343 156.74V171.563C139.343 171.654 139.307 171.742 139.243 171.807C139.178 171.872 139.091 171.908 139 171.908Z" fill="#0D47A1"/>
<path d="M143.814 164.496H134.191C134.1 164.496 134.013 164.459 133.948 164.394C133.884 164.33 133.848 164.242 133.848 164.15C133.848 164.058 133.884 163.971 133.948 163.906C134.013 163.841 134.1 163.805 134.191 163.805H143.814C143.905 163.805 143.993 163.841 144.057 163.906C144.122 163.971 144.158 164.058 144.158 164.15C144.158 164.242 144.122 164.33 144.057 164.394C143.993 164.459 143.905 164.496 143.814 164.496Z" fill="#0D47A1"/>
<path d="M236.453 24.1257C236.408 24.1258 236.363 24.1169 236.321 24.0995C236.28 24.0822 236.242 24.0567 236.21 24.0246C236.178 23.9926 236.153 23.9545 236.135 23.9125C236.118 23.8706 236.109 23.8257 236.109 23.7803V16.3689C236.109 16.2772 236.146 16.1894 236.21 16.1246C236.274 16.0598 236.362 16.0234 236.453 16.0234C236.544 16.0234 236.632 16.0598 236.696 16.1246C236.76 16.1894 236.797 16.2772 236.797 16.3689V23.7803C236.797 23.8257 236.788 23.8706 236.771 23.9125C236.753 23.9545 236.728 23.9926 236.696 24.0246C236.664 24.0567 236.626 24.0822 236.585 24.0995C236.543 24.1169 236.498 24.1258 236.453 24.1257Z" fill="#0D47A1"/>
<path d="M238.858 20.4213H234.047C234.002 20.4213 233.957 20.4124 233.915 20.395C233.874 20.3776 233.836 20.3522 233.804 20.3201C233.772 20.288 233.747 20.25 233.729 20.2081C233.712 20.1662 233.703 20.1212 233.703 20.0759C233.703 20.0305 233.712 19.9856 233.729 19.9437C233.747 19.9018 233.772 19.8637 233.804 19.8316C233.836 19.7996 233.874 19.7741 233.915 19.7568C233.957 19.7394 234.002 19.7305 234.047 19.7305H238.858C238.949 19.7305 239.037 19.7669 239.101 19.8316C239.166 19.8964 239.202 19.9843 239.202 20.0759C239.202 20.1675 239.166 20.2553 239.101 20.3201C239.037 20.3849 238.949 20.4213 238.858 20.4213Z" fill="#0D47A1"/>
</svg>
