<svg width="40" height="40" viewBox="0 0 10 10" fill="none" xmlns="http://www.w3.org/2000/svg">
<path d="M1.25 3.79557V6.19974C1.25 7.08307 1.25 7.08307 2.08333 7.64557L4.375 8.97057C4.72083 9.17057 5.28333 9.17057 5.625 8.97057L7.91667 7.64557C8.75 7.08307 8.75 7.08307 8.75 6.20391V3.79557C8.75 2.91641 8.75 2.91641 7.91667 2.35391L5.625 1.02891C5.28333 0.828906 4.72083 0.828906 4.375 1.02891L2.08333 2.35391C1.25 2.91641 1.25 2.91641 1.25 3.79557Z" stroke="white" stroke-linecap="round" stroke-linejoin="round"/>
<path d="M5 6.25C5.69036 6.25 6.25 5.69036 6.25 5C6.25 4.30964 5.69036 3.75 5 3.75C4.30964 3.75 3.75 4.30964 3.75 5C3.75 5.69036 4.30964 6.25 5 6.25Z" stroke="white" stroke-linecap="round" stroke-linejoin="round"/>
</svg>
