<svg width="18" height="18" viewBox="0 0 18 18" fill="none" xmlns="http://www.w3.org/2000/svg">
<path d="M10.8989 7.10195L7.10391 10.897C6.61641 10.4095 6.31641 9.74195 6.31641 8.99945C6.31641 7.51445 7.51641 6.31445 9.00141 6.31445C9.74391 6.31445 10.4114 6.61445 10.8989 7.10195Z" stroke="white" stroke-width="1.5" stroke-linecap="round" stroke-linejoin="round"/>
<path d="M13.3639 4.32687C12.0514 3.33687 10.5514 2.79688 8.99891 2.79688C6.35141 2.79688 3.88391 4.35687 2.16641 7.05687C1.49141 8.11437 1.49141 9.89188 2.16641 10.9494C2.75891 11.8794 3.44891 12.6819 4.19891 13.3269" stroke="white" stroke-width="1.5" stroke-linecap="round" stroke-linejoin="round"/>
<path d="M6.31641 14.6473C7.17141 15.0073 8.07891 15.2023 9.00141 15.2023C11.6489 15.2023 14.1164 13.6423 15.8339 10.9423C16.5089 9.88477 16.5089 8.10727 15.8339 7.04977C15.5864 6.65977 15.3164 6.29227 15.0389 5.94727" stroke="white" stroke-width="1.5" stroke-linecap="round" stroke-linejoin="round"/>
<path d="M11.6306 9.52539C11.4356 10.5829 10.5731 11.4454 9.51562 11.6404" stroke="white" stroke-width="1.5" stroke-linecap="round" stroke-linejoin="round"/>
<path d="M7.1025 10.8984L1.5 16.5009" stroke="white" stroke-width="1.5" stroke-linecap="round" stroke-linejoin="round"/>
<path d="M16.5009 1.5L10.8984 7.1025" stroke="white" stroke-width="1.5" stroke-linecap="round" stroke-linejoin="round"/>
</svg>
